<svg width="175" height="259" viewBox="0 0 175 259" fill="none" xmlns="http://www.w3.org/2000/svg">
<rect x="59.4175" y="248.604" width="57" height="10" rx="5" fill="black"/>
<rect x="41.4175" y="229.604" width="92" height="10" rx="5" fill="black"/>
<rect x="42.4175" y="208.604" width="90" height="10" rx="5" fill="black"/>
<rect x="42.4175" y="189.604" width="90" height="10" rx="5" fill="black"/>
<path d="M127.417 179.104H47.9175C48.5841 174.604 43.9175 164.104 21.9175 141.104C-0.0825157 118.104 0.417485 77.6036 6.91748 60.1036C11.9175 40.6036 42.2175 0.703606 87.4175 3.10361C132.617 0.703606 163.418 40.6036 168.418 60.1036C174.918 77.6036 175.418 118.104 153.418 141.104C131.418 164.104 126.751 174.604 127.417 179.104Z" stroke="black" stroke-width="5"/>
<path fill-rule="evenodd" clip-rule="evenodd" d="M78.6783 21.2507C73.1879 22.0439 63.8777 24.8087 62.7276 25.9872C60.2929 28.4822 65.4428 40.8128 70.6969 45.0686C73.7378 47.5309 73.826 47.5271 77.0801 44.7824C78.5522 43.5399 79.9251 42.5234 80.1296 42.5234C83.0873 42.5234 86.7835 35.9747 85.8539 32.3828C85.5465 31.1955 85.3395 28.4759 85.3959 26.3386C85.5233 21.4277 84.23 20.4475 78.6783 21.2507ZM55.1565 29.0294C48.3691 32.7317 40.9339 38.9779 38.8923 42.6953C35.7435 48.4282 44.8419 58.1748 53.4492 58.2877C57.95 58.3479 58.9114 60.1075 55.2275 61.5445C50.0029 63.5826 40.7342 58.6165 37.0038 51.7804C34.3792 46.9712 33.6309 46.9298 30.7491 51.4328C25.5931 59.4913 21.4364 70.1866 19.9067 79.3369C18.8988 85.3686 19.75 86.6738 25.8025 88.3756C33.795 90.6208 36.7466 88.2727 37.1752 79.3269C37.4079 74.4888 37.7925 73.7697 39.7998 74.4235C40.9853 74.8088 41.3674 76.4956 41.011 79.7787C40.0508 88.6454 40.0423 88.4233 41.4311 91.5947C43.8021 97.0064 49.1909 100.756 54.5992 100.756C58.4167 100.756 58.7008 100.126 57.165 95.0724C55.6598 90.1238 55.5961 86.4014 57.0009 85.4991C58.5795 84.485 59.5409 85.7149 59.8692 89.17C60.8514 99.5315 64.7888 103.372 75.8958 104.805C80.9698 105.459 83.6801 104.819 84.6549 102.736C85.3102 101.332 85.8405 44.4247 85.2036 43.7721C84.726 43.2827 80.8951 46.0989 78.791 48.486C76.3979 51.2006 73.9154 56.7139 73.6411 59.9243L73.4206 62.5171L75.9374 63.9893C80.3096 66.5483 83.5551 71.9486 81.4241 73.1183C80.6403 73.5475 79.9973 73.1221 77.3213 70.4074C71.9497 64.9556 67.2787 64.4185 60.6579 68.486C58.3615 69.8979 57.688 70.1125 57.1062 69.6168C55.1381 67.9438 58.2256 64.6381 63.1649 63.1308C67.5395 61.7955 70.5842 58.2764 71.9828 52.9388L72.4764 51.0538L69.3558 48.6466C64.1985 44.6669 61.4931 40.2681 59.5728 32.7342C58.2464 27.5359 58.108 27.4204 55.1565 29.0294ZM19.4842 90.5493C18.126 91.9399 19.7977 105.059 22.3537 113.068C25.2061 122.005 25.6041 122.265 30.0204 118.074C34.5996 113.73 39.2682 112.019 40.0092 114.414C40.2186 115.09 40.1329 115.596 39.7888 115.714C39.4789 115.819 38.0717 116.715 36.662 117.704C26.7455 124.661 26.6635 124.929 32.1061 132.724C40.3913 144.593 42.8885 145.991 45.5363 140.249C46.3287 138.53 47.7592 136.164 48.7145 134.992C51.0598 132.116 51.208 131.39 50.2454 127.475C48.821 121.675 49.8032 116.071 52.1816 116.42C53.0732 116.551 53.2116 116.934 53.2582 119.405C53.4566 129.914 55.9256 134.698 63.1098 138.486C64.937 139.45 65.4514 139.991 65.4514 140.947C65.4514 143.638 59.176 141.713 55.6843 137.95C53.0855 135.149 52.0322 135.76 48.6373 142.039C45.7984 147.289 46.4622 148.688 53.7113 152.739C63.1061 157.99 69.8959 160.123 71.8726 158.443C74.104 156.547 74.6208 152.278 72.8818 150.118C69.6938 146.157 68.7533 142.334 70.8879 142.021C71.6803 141.906 72.3514 142.571 73.8076 144.914C76.5779 149.37 82.4443 151.566 84.8864 149.063C85.5931 148.339 85.5367 109.947 84.8288 109.072C84.448 108.603 82.2435 108.349 77.194 108.194C72.6282 108.053 69.8873 107.762 69.5126 107.378C69.1917 107.049 68.572 106.78 68.1348 106.78C67.6975 106.78 66.1434 106.118 64.6811 105.31C62.1312 103.898 61.7822 103.841 56.1436 103.914C47.9588 104.021 43.5045 101.621 38.1832 94.2365L36.9217 92.4858L32.0816 92.6364C27.9311 92.7657 26.7162 92.6038 23.5662 91.5044C19.2454 89.9958 19.8786 90.1439 19.4842 90.5493ZM77.3177 154.348C76.3685 155.423 75.7611 159.963 76.4298 160.986C77.009 161.872 84.1161 162.403 84.8827 161.617C86.601 159.857 86.105 154.309 84.1822 153.781C81.8381 153.138 78.115 153.445 77.3177 154.348Z" fill="#212121"/>
<path fill-rule="evenodd" clip-rule="evenodd" d="M92.4256 21.3568C89.8969 22.8748 91.6267 26.3913 96.4801 29.5979C103.796 34.4317 109.924 40.968 116.709 51.1763C119.589 55.5108 120.112 55.9436 122.464 55.9436C128.699 55.9436 129.125 52.8097 124.006 44.5899C123.099 43.1346 121.728 39.9555 120.961 37.5267C117.706 27.2168 112.007 23.3854 97.2351 21.5788C95.6482 21.3844 94.109 21.1397 93.8146 21.0343C93.5214 20.929 92.8959 21.0745 92.4256 21.3568ZM91.5876 32.8272C90.8705 34.2047 90.9853 46.2622 91.7379 48.4163C94.9593 57.6486 101.909 62.515 109.344 60.7436C115.397 59.3021 116.715 57.3738 114.206 53.6302C113.487 52.5563 112.03 50.3232 110.968 48.6672C105.398 39.9794 93.0987 29.9266 91.5876 32.8272ZM123.556 32.3918C122.898 33.4858 128.456 46.9183 130.965 50.2969C134.149 54.5824 144.801 55.4092 143.579 51.2754C142.148 46.4265 124.9 30.16 123.556 32.3918ZM137.381 57.4892C136.005 58.3122 137.462 63.067 139.664 64.9438C140.088 65.3051 140.435 65.8044 140.435 66.0516C140.435 67.6951 153.286 84.0457 154.578 84.0457C157.562 84.0457 150.821 60.2957 147.132 57.8129C145.667 56.8281 138.865 56.601 137.381 57.4892ZM91.2785 58.7225C90.8461 60.4889 91.2797 65.8822 91.9052 66.5245C93.1549 67.808 98.4115 65.3327 98.4115 63.4609C98.4115 62.6103 93.2038 57.4491 92.345 57.4491C91.9296 57.4491 91.4495 58.0224 91.2785 58.7225ZM126.401 58.6158C122.349 60.1326 122.179 61.2065 125.035 67.2346C127.058 71.5039 130.205 80.351 131.639 85.8021C132.221 88.0101 133.045 91.0574 133.472 92.5729C136.231 102.376 135.972 129.227 133.065 134.809C132.818 135.28 132.617 136.347 132.617 137.176C132.617 138.007 132.416 138.812 132.171 138.968C131.593 139.335 130.977 143.068 131.383 143.742C131.9 144.601 134.086 143.091 137.295 139.66C148.421 127.764 154.594 114.05 155.904 98.3112C156.263 94.0094 155.755 92.7172 151.875 88.0603C147.695 83.0433 141.597 74.5098 136.446 66.4693C130.986 57.9434 130.083 57.2383 126.401 58.6158ZM113.804 62.9804C112.191 63.4948 110.249 64.0506 109.487 64.2149C106.461 64.871 105.168 67.5621 106.418 70.6044C111.452 82.8689 107.746 99.4554 95.454 119.675C94.6978 120.917 93.387 124.079 92.5405 126.701L91 131.468L91.0525 145.14C91.1075 159.545 91.3066 161.058 93.2514 161.817C95.6018 162.734 105.687 160.126 116.491 155.806C121.054 153.981 125.695 147.86 127.046 141.883C127.217 141.123 127.625 140.049 127.951 139.497C131.272 133.888 133.563 114.11 131.935 105.122C131.56 103.052 131.109 99.7778 130.933 97.8458C130.759 95.9138 130.266 93.091 129.841 91.573C128.265 85.9539 124.393 74.2125 123.634 72.7547C123.203 71.9267 122.849 70.8678 122.846 70.4011C122.845 69.9344 122.639 69.4213 122.387 69.262C122.135 69.1027 121.465 67.6775 120.895 66.0955C119.308 61.6832 118.706 61.4185 113.804 62.9804ZM96.2908 69.2093C91.1783 70.6207 91.0892 71.056 91.1173 94.5426C91.1393 113.982 91.2614 116.162 92.323 116.162C93.475 116.162 98.3456 108.763 99.7565 104.871C104.301 92.3408 104.886 89.5996 104.641 81.997C104.225 69.0851 103.082 67.335 96.2908 69.2093Z" fill="#0045FA"/>
</svg>
